<svg width="41" height="40" viewBox="0 0 41 40" fill="none" xmlns="http://www.w3.org/2000/svg">
<rect x="0.155273" width="40" height="40" rx="20" fill="#282C33"/>
<path d="M6.77127 24V15.684H8.73927V22.446H12.3453L12.1413 24H6.77127ZM19.7806 19.836C19.7806 20.716 19.6546 21.484 19.4026 22.14C19.1506 22.792 18.7766 23.3 18.2806 23.664C17.7886 24.024 17.1786 24.204 16.4506 24.204C15.7266 24.204 15.1166 24.028 14.6206 23.676C14.1246 23.32 13.7506 22.816 13.4986 22.164C13.2466 21.512 13.1206 20.736 13.1206 19.836C13.1206 18.956 13.2466 18.19 13.4986 17.538C13.7506 16.886 14.1246 16.38 14.6206 16.02C15.1166 15.656 15.7266 15.474 16.4506 15.474C17.1786 15.474 17.7886 15.65 18.2806 16.002C18.7766 16.354 19.1506 16.856 19.4026 17.508C19.6546 18.16 19.7806 18.936 19.7806 19.836ZM17.7646 19.836C17.7646 18.812 17.6626 18.068 17.4586 17.604C17.2546 17.14 16.9186 16.908 16.4506 16.908C15.9826 16.908 15.6466 17.142 15.4426 17.61C15.2386 18.074 15.1366 18.816 15.1366 19.836C15.1366 20.86 15.2406 21.604 15.4486 22.068C15.6566 22.532 15.9906 22.764 16.4506 22.764C16.9306 22.764 17.2686 22.53 17.4646 22.062C17.6646 21.59 17.7646 20.848 17.7646 19.836ZM23.9519 24.204C23.1639 24.204 22.4999 24.038 21.9599 23.706C21.4199 23.37 21.0099 22.878 20.7299 22.23C20.4539 21.578 20.3159 20.776 20.3159 19.824C20.3159 19.116 20.4139 18.492 20.6099 17.952C20.8099 17.408 21.0859 16.954 21.4379 16.59C21.7899 16.222 22.1999 15.944 22.6679 15.756C23.1359 15.568 23.6399 15.474 24.1799 15.474C24.7879 15.474 25.2999 15.568 25.7159 15.756C26.1319 15.944 26.5019 16.192 26.8259 16.5L25.7939 17.568C25.5419 17.344 25.2999 17.178 25.0679 17.07C24.8359 16.962 24.5719 16.908 24.2759 16.908C23.9959 16.908 23.7379 16.964 23.5019 17.076C23.2699 17.184 23.0659 17.356 22.8899 17.592C22.7179 17.824 22.5839 18.126 22.4879 18.498C22.3919 18.866 22.3439 19.312 22.3439 19.836C22.3439 20.56 22.4019 21.136 22.5179 21.564C22.6379 21.992 22.8179 22.3 23.0579 22.488C23.2979 22.672 23.6019 22.764 23.9699 22.764C24.1659 22.764 24.3499 22.742 24.5219 22.698C24.6939 22.65 24.8539 22.588 25.0019 22.512V20.61H23.9579L23.7659 19.23H26.8619V23.364C26.4459 23.62 25.9979 23.824 25.5179 23.976C25.0419 24.128 24.5199 24.204 23.9519 24.204ZM34.1712 19.836C34.1712 20.716 34.0452 21.484 33.7932 22.14C33.5412 22.792 33.1672 23.3 32.6712 23.664C32.1792 24.024 31.5692 24.204 30.8412 24.204C30.1172 24.204 29.5072 24.028 29.0112 23.676C28.5152 23.32 28.1412 22.816 27.8892 22.164C27.6372 21.512 27.5112 20.736 27.5112 19.836C27.5112 18.956 27.6372 18.19 27.8892 17.538C28.1412 16.886 28.5152 16.38 29.0112 16.02C29.5072 15.656 30.1172 15.474 30.8412 15.474C31.5692 15.474 32.1792 15.65 32.6712 16.002C33.1672 16.354 33.5412 16.856 33.7932 17.508C34.0452 18.16 34.1712 18.936 34.1712 19.836ZM32.1552 19.836C32.1552 18.812 32.0532 18.068 31.8492 17.604C31.6452 17.14 31.3092 16.908 30.8412 16.908C30.3732 16.908 30.0372 17.142 29.8332 17.61C29.6292 18.074 29.5272 18.816 29.5272 19.836C29.5272 20.86 29.6312 21.604 29.8392 22.068C30.0472 22.532 30.3812 22.764 30.8412 22.764C31.3212 22.764 31.6592 22.53 31.8552 22.062C32.0552 21.59 32.1552 20.848 32.1552 19.836Z" fill="white"/>
</svg>
