<svg width="41" height="40" viewBox="0 0 41 40" fill="none" xmlns="http://www.w3.org/2000/svg">
<rect x="0.155365" width="40" height="40" rx="20" fill="white"/>
<path d="M6.77137 24V15.684H8.73936V22.446H12.3454L12.1414 24H6.77137ZM19.7807 19.836C19.7807 20.716 19.6547 21.484 19.4027 22.14C19.1507 22.792 18.7767 23.3 18.2807 23.664C17.7887 24.024 17.1787 24.204 16.4507 24.204C15.7267 24.204 15.1167 24.028 14.6207 23.676C14.1247 23.32 13.7507 22.816 13.4987 22.164C13.2467 21.512 13.1207 20.736 13.1207 19.836C13.1207 18.956 13.2467 18.19 13.4987 17.538C13.7507 16.886 14.1247 16.38 14.6207 16.02C15.1167 15.656 15.7267 15.474 16.4507 15.474C17.1787 15.474 17.7887 15.65 18.2807 16.002C18.7767 16.354 19.1507 16.856 19.4027 17.508C19.6547 18.16 19.7807 18.936 19.7807 19.836ZM17.7647 19.836C17.7647 18.812 17.6627 18.068 17.4587 17.604C17.2547 17.14 16.9187 16.908 16.4507 16.908C15.9827 16.908 15.6467 17.142 15.4427 17.61C15.2387 18.074 15.1367 18.816 15.1367 19.836C15.1367 20.86 15.2407 21.604 15.4487 22.068C15.6567 22.532 15.9907 22.764 16.4507 22.764C16.9307 22.764 17.2687 22.53 17.4647 22.062C17.6647 21.59 17.7647 20.848 17.7647 19.836ZM23.952 24.204C23.164 24.204 22.5 24.038 21.96 23.706C21.42 23.37 21.01 22.878 20.73 22.23C20.454 21.578 20.316 20.776 20.316 19.824C20.316 19.116 20.414 18.492 20.61 17.952C20.81 17.408 21.086 16.954 21.438 16.59C21.79 16.222 22.2 15.944 22.668 15.756C23.136 15.568 23.64 15.474 24.18 15.474C24.788 15.474 25.3 15.568 25.716 15.756C26.132 15.944 26.502 16.192 26.826 16.5L25.794 17.568C25.542 17.344 25.3 17.178 25.068 17.07C24.836 16.962 24.572 16.908 24.276 16.908C23.996 16.908 23.738 16.964 23.502 17.076C23.27 17.184 23.066 17.356 22.89 17.592C22.718 17.824 22.584 18.126 22.488 18.498C22.392 18.866 22.344 19.312 22.344 19.836C22.344 20.56 22.402 21.136 22.518 21.564C22.638 21.992 22.818 22.3 23.058 22.488C23.298 22.672 23.602 22.764 23.97 22.764C24.166 22.764 24.35 22.742 24.522 22.698C24.694 22.65 24.854 22.588 25.002 22.512V20.61H23.958L23.766 19.23H26.862V23.364C26.446 23.62 25.998 23.824 25.518 23.976C25.042 24.128 24.52 24.204 23.952 24.204ZM34.1713 19.836C34.1713 20.716 34.0453 21.484 33.7933 22.14C33.5413 22.792 33.1673 23.3 32.6713 23.664C32.1793 24.024 31.5693 24.204 30.8413 24.204C30.1173 24.204 29.5073 24.028 29.0113 23.676C28.5153 23.32 28.1413 22.816 27.8893 22.164C27.6373 21.512 27.5113 20.736 27.5113 19.836C27.5113 18.956 27.6373 18.19 27.8893 17.538C28.1413 16.886 28.5153 16.38 29.0113 16.02C29.5073 15.656 30.1173 15.474 30.8413 15.474C31.5693 15.474 32.1793 15.65 32.6713 16.002C33.1673 16.354 33.5413 16.856 33.7933 17.508C34.0453 18.16 34.1713 18.936 34.1713 19.836ZM32.1553 19.836C32.1553 18.812 32.0533 18.068 31.8493 17.604C31.6453 17.14 31.3093 16.908 30.8413 16.908C30.3733 16.908 30.0373 17.142 29.8333 17.61C29.6293 18.074 29.5273 18.816 29.5273 19.836C29.5273 20.86 29.6313 21.604 29.8393 22.068C30.0473 22.532 30.3813 22.764 30.8413 22.764C31.3213 22.764 31.6593 22.53 31.8553 22.062C32.0553 21.59 32.1553 20.848 32.1553 19.836Z" fill="#282C33"/>
</svg>
