<svg xmlns="http://www.w3.org/2000/svg" xmlns:xlink="http://www.w3.org/1999/xlink" width="500" zoomAndPan="magnify" viewBox="0 0 375 374.999991" height="500" preserveAspectRatio="xMidYMid meet" version="1.0"><defs><g/><clipPath id="954b047741"><path d="M 92.910156 283.871094 L 134.125 283.871094 L 134.125 325.085938 L 92.910156 325.085938 Z M 92.910156 283.871094 " clip-rule="nonzero"/></clipPath><clipPath id="b6d7d20300"><path d="M 113.515625 283.871094 C 102.136719 283.871094 92.910156 293.097656 92.910156 304.476562 C 92.910156 315.859375 102.136719 325.085938 113.515625 325.085938 C 124.898438 325.085938 134.125 315.859375 134.125 304.476562 C 134.125 293.097656 124.898438 283.871094 113.515625 283.871094 Z M 113.515625 283.871094 " clip-rule="nonzero"/></clipPath></defs><rect x="-37.5" width="450" fill="#ffffff" y="-37.499999" height="449.999989" fill-opacity="1"/><rect x="-37.5" width="450" fill="#282c33" y="-37.499999" height="449.999989" fill-opacity="1"/><g clip-path="url(#954b047741)"><g clip-path="url(#b6d7d20300)"><path fill="#ffffff" d="M 92.910156 283.871094 L 134.125 283.871094 L 134.125 325.085938 L 92.910156 325.085938 Z M 92.910156 283.871094 " fill-opacity="1" fill-rule="nonzero"/></g></g><g fill="#ffffff" fill-opacity="1"><g transform="translate(92.909295, 265.757835)"><g><path d="M 31.609375 -195.015625 C 43.128906 -199.796875 54.203125 -202.1875 64.828125 -202.1875 C 73.679688 -202.1875 82.800781 -198.910156 92.1875 -192.359375 C 97.320312 -188.816406 103.082031 -181.910156 109.46875 -171.640625 C 113.71875 -164.546875 119.117188 -151.703125 125.671875 -133.109375 L 158.078125 -41.1875 C 165.523438 -20.632812 173.097656 -4.296875 180.796875 7.828125 C 188.503906 19.960938 195.546875 29.085938 201.921875 35.203125 C 208.296875 41.316406 214.9375 45.613281 221.84375 48.09375 C 228.75 50.570312 234.460938 51.8125 238.984375 51.8125 C 243.503906 51.8125 247.535156 51.457031 251.078125 50.75 L 251.34375 53.40625 C 242.84375 56.238281 234.515625 57.65625 226.359375 57.65625 C 218.210938 57.65625 210.066406 55.570312 201.921875 51.40625 C 193.773438 47.25 186.160156 41.453125 179.078125 34.015625 C 163.835938 18.597656 150.90625 -4.875 140.28125 -36.40625 L 129.921875 -66.6875 L 57.125 -66.6875 L 38.796875 -19.390625 C 37.910156 -17.265625 37.46875 -15.140625 37.46875 -13.015625 C 37.46875 -10.890625 38.394531 -8.628906 40.25 -6.234375 C 42.113281 -3.847656 44.992188 -2.65625 48.890625 -2.65625 L 51.015625 -2.65625 L 51.015625 0 L -2.390625 0 L -2.390625 -2.65625 L 0 -2.65625 C 4.25 -2.65625 8.410156 -3.9375 12.484375 -6.5 C 16.554688 -9.070312 19.921875 -12.925781 22.578125 -18.0625 L 88.46875 -175.890625 C 78.90625 -189.523438 67.039062 -196.34375 52.875 -196.34375 C 46.5 -196.34375 39.675781 -195.015625 32.40625 -192.359375 Z M 60.046875 -74.65625 L 127.265625 -74.65625 L 106.28125 -136.5625 C 102.207031 -148.425781 98.484375 -157.722656 95.109375 -164.453125 Z M 60.046875 -74.65625 "/></g></g></g></svg>